<mxfile host="drawio-plugin" modified="2021-12-21T13:53:44.276Z" agent="5.0 (X11; Linux x86_64) AppleWebKit/537.36 (KHTML, like Gecko) Chrome/89.0.4389.114 Safari/537.36" etag="Vh6RG-NAkTOTkhH5R4uu" version="14.7.4" type="embed"><diagram id="23iRSUPoRavnBvh4doch" name="Page-1"><mxGraphModel dx="836" dy="723" grid="1" gridSize="10" guides="1" tooltips="1" connect="1" arrows="1" fold="1" page="1" pageScale="1" pageWidth="827" pageHeight="1169" math="0" shadow="0"><root><mxCell id="0"/><mxCell id="1" parent="0"/><mxCell id="2" value="Lecture carte" style="rounded=0;whiteSpace=wrap;html=1;" vertex="1" parent="1"><mxGeometry x="90" y="30" width="500" height="60" as="geometry"/></mxCell><mxCell id="3" value="" style="endArrow=classic;html=1;exitX=0.525;exitY=1;exitDx=0;exitDy=0;exitPerimeter=0;startArrow=none;" edge="1" parent="1" source="4" target="17"><mxGeometry width="50" height="50" relative="1" as="geometry"><mxPoint x="390" y="400" as="sourcePoint"/><mxPoint x="400" y="290" as="targetPoint"/><Array as="points"><mxPoint x="390" y="272"/></Array></mxGeometry></mxCell><mxCell id="4" value="controle cotisation" style="rhombus;whiteSpace=wrap;html=1;" vertex="1" parent="1"><mxGeometry x="360" y="150" width="80" height="80" as="geometry"/></mxCell><mxCell id="5" value="" style="endArrow=none;html=1;exitX=0.525;exitY=1;exitDx=0;exitDy=0;exitPerimeter=0;" edge="1" parent="1" source="2" target="4"><mxGeometry width="50" height="50" relative="1" as="geometry"><mxPoint x="400" y="90" as="sourcePoint"/><mxPoint x="400" y="320" as="targetPoint"/></mxGeometry></mxCell><mxCell id="6" value="" style="endArrow=classic;html=1;exitX=1;exitY=0.5;exitDx=0;exitDy=0;entryX=0.998;entryY=0.633;entryDx=0;entryDy=0;entryPerimeter=0;" edge="1" parent="1" source="4" target="2"><mxGeometry width="50" height="50" relative="1" as="geometry"><mxPoint x="390" y="400" as="sourcePoint"/><mxPoint x="640" y="50" as="targetPoint"/><Array as="points"><mxPoint x="680" y="190"/><mxPoint x="680" y="68"/></Array></mxGeometry></mxCell><mxCell id="7" value="non valide" style="text;html=1;align=center;verticalAlign=middle;resizable=0;points=[];autosize=1;strokeColor=none;" vertex="1" parent="1"><mxGeometry x="495" y="170" width="70" height="20" as="geometry"/></mxCell><mxCell id="8" value="valide" style="text;html=1;align=center;verticalAlign=middle;resizable=0;points=[];autosize=1;strokeColor=none;" vertex="1" parent="1"><mxGeometry x="350" y="250" width="50" height="20" as="geometry"/></mxCell><mxCell id="9" value="scan document" style="rounded=0;whiteSpace=wrap;html=1;" vertex="1" parent="1"><mxGeometry x="260" y="380" width="390" height="70" as="geometry"/></mxCell><mxCell id="10" value="creation fiche" style="rounded=0;whiteSpace=wrap;html=1;" vertex="1" parent="1"><mxGeometry x="80" y="530" width="640" height="60" as="geometry"/></mxCell><mxCell id="11" value="" style="endArrow=classic;html=1;exitX=0.654;exitY=1.029;exitDx=0;exitDy=0;exitPerimeter=0;" edge="1" parent="1" source="9"><mxGeometry width="50" height="50" relative="1" as="geometry"><mxPoint x="390" y="390" as="sourcePoint"/><mxPoint x="515" y="530" as="targetPoint"/></mxGeometry></mxCell><mxCell id="12" value="id document (cote document)" style="text;html=1;align=center;verticalAlign=middle;resizable=0;points=[];autosize=1;strokeColor=none;" vertex="1" parent="1"><mxGeometry x="525" y="450" width="170" height="20" as="geometry"/></mxCell><mxCell id="15" value="" style="endArrow=classic;html=1;exitX=0.004;exitY=0.883;exitDx=0;exitDy=0;exitPerimeter=0;entryX=0.016;entryY=-0.067;entryDx=0;entryDy=0;entryPerimeter=0;" edge="1" parent="1" source="2" target="10"><mxGeometry width="50" height="50" relative="1" as="geometry"><mxPoint x="390" y="390" as="sourcePoint"/><mxPoint x="440" y="340" as="targetPoint"/></mxGeometry></mxCell><mxCell id="16" value="id lecteur" style="text;html=1;align=center;verticalAlign=middle;resizable=0;points=[];autosize=1;strokeColor=none;" vertex="1" parent="1"><mxGeometry x="96" y="280" width="60" height="20" as="geometry"/></mxCell><mxCell id="17" value="comptage d'emprunt" style="rounded=0;whiteSpace=wrap;html=1;" vertex="1" parent="1"><mxGeometry x="490" y="270" width="120" height="60" as="geometry"/></mxCell><mxCell id="18" value="max 5 emprunts" style="endArrow=classic;html=1;exitX=0;exitY=1;exitDx=0;exitDy=0;" edge="1" parent="1" source="17"><mxGeometry width="50" height="50" relative="1" as="geometry"><mxPoint x="390" y="390" as="sourcePoint"/><mxPoint x="410" y="380" as="targetPoint"/><Array as="points"><mxPoint x="410" y="330"/></Array></mxGeometry></mxCell></root></mxGraphModel></diagram></mxfile>